# xmcd
#
# Track frame offsets:
#	183
#	22343
#	35433
#	55168
#	70858
#	88370
#	104383
#	118795
#	155133
#	173058
#	192858
#	217483
#	245665
#
# Disc length: 3525 seconds
#
# Revision: 1
# Processed by: cddbd v1.5.2PL0 Copyright (c) Steve Scherf et al.
# Submitted via: EZCDAudioConverter 4.0.5.1
#
DISCID=c90dc30d
DTITLE=Steve Earle - BBC Radio 1 Live In Concert 1988
DYEAR=1988
DGENRE=Country
TTITLE0=Copperhead Road
TTITLE1=San Antonio Girl
TTITLE2=Even When I'm Blue
TTITLE3=My Old Friend The Blues
TTITLE4=Someday
TTITLE5=The Devil's Right Hand
TTITLE6=Down The Road
TTITLE7=Snake Oil
TTITLE8=Johnny Come Lately
TTITLE9=When Will We Be Married
TTITLE10=Little Rock N Roller
TTITLE11=Dead Flowers
TTITLE12=My Baby Worships Me
EXTD=
EXTT0=
EXTT1=
EXTT2=
EXTT3=
EXTT4=
EXTT5=
EXTT6=
EXTT7=
EXTT8=
EXTT9=
EXTT10=
EXTT11=
EXTT12=
PLAYORDER=
